<?xml version="1.0" standalone="no"?><!DOCTYPE svg PUBLIC "-//W3C//DTD SVG 1.1//EN" "http://www.w3.org/Graphics/SVG/1.1/DTD/svg11.dtd"><svg class="icon" width="200px" height="200.00px" viewBox="0 0 1024 1024" version="1.1" xmlns="http://www.w3.org/2000/svg"><path fill="#ff4081" d="M682.666667 128q52.992 0 90.496 37.504t37.504 90.496l0 512q0 52.992-37.504 90.496t-90.496 37.504-90.496-37.504-37.504-90.496l0-512q0-52.992 37.504-90.496t90.496-37.504zM341.333333 128q52.992 0 90.496 37.504t37.504 90.496l0 512q0 52.992-37.504 90.496t-90.496 37.504-90.496-37.504-37.504-90.496l0-512q0-52.992 37.504-90.496t90.496-37.504zM341.333333 213.333333q-17.664 0-30.165333 12.501333t-12.501333 30.165333l0 512q0 17.664 12.501333 30.165333t30.165333 12.501333 30.165333-12.501333 12.501333-30.165333l0-512q0-17.664-12.501333-30.165333t-30.165333-12.501333zM682.666667 213.333333q-17.664 0-30.165333 12.501333t-12.501333 30.165333l0 512q0 17.664 12.501333 30.165333t30.165333 12.501333 30.165333-12.501333 12.501333-30.165333l0-512q0-17.664-12.501333-30.165333t-30.165333-12.501333z" /></svg>